<?xml version="1.0" encoding="UTF-8"?>
<svg version="1.1" xmlns="http://www.w3.org/2000/svg" width="1989" height="978">
<path d="M0 0 C0.71897461 0.37882324 1.43794922 0.75764648 2.17871094 1.14794922 C22.35000663 11.82867217 40.7019975 24.91111464 57.34375 40.53125 C59.47549623 42.51252002 61.63790094 44.39207027 63.875 46.25 C75.20374054 56.14798863 84.65430247 67.92068709 93.52880859 80.00244141 C94.87498204 81.83025274 96.24076475 83.64116686 97.61328125 85.44921875 C128.64794006 126.89001242 147.81503421 181.87214164 148.23828125 233.67578125 C148.24812042 234.67089722 148.25795959 235.66601318 148.26809692 236.69128418 C148.43866414 258.4249715 148.46764164 279.64008424 144 301 C143.75862305 302.15612793 143.51724609 303.31225586 143.26855469 304.50341797 C133.07517884 351.59168562 111.89996307 394.86639986 80 431 C79.2884375 431.82242187 78.576875 432.64484375 77.84375 433.4921875 C67.80918029 444.91212691 57.04821947 455.71355004 45 465 C43.99710938 465.79664063 42.99421875 466.59328125 41.9609375 467.4140625 C29.08858087 477.58217577 15.4574691 486.26768266 1 494 C0.38640625 494.33209473 -0.2271875 494.66418945 -0.859375 495.00634766 C-40.68804135 516.39936262 -85.05696976 526.47611572 -130.0625 526.3125 C-131.10180664 526.31067719 -132.14111328 526.30885437 -133.21191406 526.30697632 C-148.34117953 526.26227463 -163.1054472 525.89274373 -178 523 C-178.94552734 522.82307617 -179.89105469 522.64615234 -180.86523438 522.46386719 C-234.32978645 512.26084291 -283.79500321 487.90655146 -323 450 C-324.10964111 448.93120605 -324.10964111 448.93120605 -325.24169922 447.84082031 C-334.75602382 438.63291208 -343.9299821 429.4230731 -351.74511719 418.71240234 C-353.07178198 416.90204692 -354.42798314 415.11663048 -355.7890625 413.33203125 C-362.16667103 404.90459463 -367.8594389 396.23261093 -373 387 C-373.46019531 386.17532227 -373.92039062 385.35064453 -374.39453125 384.50097656 C-393.16072505 350.52129188 -405.28848111 313.71200514 -409 275 C-409.16628906 273.46666016 -409.16628906 273.46666016 -409.3359375 271.90234375 C-413.68921524 224.4280852 -405.144647 176.48410882 -386 133 C-385.67950684 132.25733887 -385.35901367 131.51467773 -385.02880859 130.74951172 C-374.25397424 105.91212254 -358.98737528 83.17202377 -341 63 C-340.54915039 62.49275391 -340.09830078 61.98550781 -339.63378906 61.46289062 C-329.81186518 50.46289355 -319.60806347 40.13497405 -308 31 C-306.90671354 30.11692256 -305.8142997 29.23276394 -304.72265625 28.34765625 C-227.29896315 -34.03856657 -120.50088163 -48.51125131 0 0 Z " fill="#FFFFFF" transform="translate(1825,247)"/>
<path d="M0 0 C1.78125 1.65234375 1.78125 1.65234375 3.5 3.9375 C4.18835938 4.845 4.87671875 5.7525 5.5859375 6.6875 C6.39298548 7.78994254 7.19746995 8.89426426 8 10 C8.46438477 10.63679687 8.92876953 11.27359375 9.40722656 11.9296875 C12.122259 15.65999779 14.81905438 19.4030626 17.5078125 23.15234375 C20.96474626 27.96507101 24.47650358 32.73588411 28 37.5 C33.08234509 44.37681573 38.11003071 51.29033463 43.10546875 58.23046875 C47.03392016 63.68083838 51.00705268 69.09674016 55 74.5 C59.53751011 80.64016269 64.03966576 86.80354661 68.5 93 C75.25983749 102.38780773 82.12417344 111.69696495 89 121 C96.42059673 131.0401124 103.81196039 141.09797508 111.10571289 151.23071289 C115.0339888 156.68106937 119.00712036 162.09683174 123 167.5 C127.53751011 173.64016269 132.03966576 179.80354661 136.5 186 C143.25983749 195.38780773 150.12417344 204.69696495 157 214 C164.42121495 224.04094886 171.81171806 234.10066404 179.10791016 244.23291016 C185.33662403 252.87249604 191.66954014 261.4348494 198 270 C205.42059673 280.0401124 212.81196039 290.09797508 220.10571289 300.23071289 C224.0339888 305.68106937 228.00712036 311.09683174 232 316.5 C236.53751011 322.64016269 241.03966576 328.80354661 245.5 335 C252.25983749 344.38780773 259.12417344 353.69696495 266 363 C273.42059673 373.0401124 280.81196039 383.09797508 288.10571289 393.23071289 C292.0339888 398.68106937 296.00712036 404.09683174 300 409.5 C304.53751011 415.64016269 309.03966576 421.80354661 313.5 428 C320.25983749 437.38780773 327.12417344 446.69696495 334 456 C341.42059673 466.0401124 348.81196039 476.09797508 356.10571289 486.23071289 C360.03399018 491.68107129 364.00725982 497.09672699 368 502.5 C372.73876552 508.9156715 377.4508318 515.34958406 382.125 521.8125 C382.65738281 522.54726563 383.18976563 523.28203125 383.73828125 524.0390625 C385.16782751 526.01984768 386.58765182 528.00692426 388 530 C388.41419189 530.58152832 388.82838379 531.16305664 389.25512695 531.76220703 C392.00749207 535.73028538 392.00749207 535.73028538 391.9375 538.25 C391 540 391 540 388 542 C385.11734104 542.25069833 385.11734104 542.25069833 381.51722717 542.25168228 C380.85282194 542.25458916 380.18841672 542.25749604 379.503878 542.26049101 C377.26169066 542.26783117 375.01977355 542.26082915 372.77758789 542.25396729 C371.16021363 542.25627013 369.54284041 542.25944547 367.9254694 542.26342177 C363.4685941 542.2718026 359.01180399 542.26762965 354.5549283 542.26144934 C349.75323681 542.25693924 344.95156036 542.26390141 340.14987183 542.26940918 C330.73844487 542.2783203 321.32704974 542.27637354 311.91562152 542.2705839 C304.2693574 542.26607416 296.62310222 542.26545152 288.97683716 542.26763153 C287.89016819 542.267938 286.80349922 542.26824446 285.68390089 542.26856022 C283.47661868 542.26919964 281.26933648 542.26984807 279.06205428 542.2705054 C258.34571117 542.27621373 237.62938574 542.26964293 216.91304553 542.25890467 C199.12268556 542.2499687 181.33235168 542.2515206 163.54199219 542.26074219 C142.90171472 542.27143595 122.26145276 542.27566436 101.6211729 542.26951766 C99.42183622 542.26888054 97.22249953 542.2682518 95.02316284 542.26763153 C93.94093872 542.26732298 92.85871459 542.26701443 91.7436958 542.26669653 C84.10322547 542.2649669 76.46276495 542.26789044 68.82229614 542.27259064 C59.51598701 542.27818956 50.20971163 542.27670393 40.90340638 542.26602915 C36.15171974 542.26075907 31.40008945 542.25873833 26.64840317 542.26532745 C22.30353331 542.2712615 17.95877236 542.26805418 13.61391246 542.25737235 C12.03724427 542.25512746 10.46056698 542.25629879 8.88390458 542.26112393 C6.75006092 542.26715622 4.61659628 542.26101811 2.48277283 542.25168228 C1.29473525 542.25135758 0.10669767 542.25103287 -1.11734104 542.25069833 C-4 542 -4 542 -7 540 C-7.29738313 537.03819034 -7.39627681 534.28514588 -7.36914349 531.32052422 C-7.37260502 530.40649474 -7.37606655 529.49246526 -7.37963298 528.55073792 C-7.38764492 525.45333265 -7.37405626 522.35638472 -7.36076355 519.25900269 C-7.36207039 517.02988326 -7.36469456 514.80076427 -7.36853105 512.57164776 C-7.37527184 506.41925826 -7.36319413 500.26702401 -7.34819686 494.1146543 C-7.33661594 488.16968474 -7.33907495 482.2247262 -7.34124239 476.27974948 C-7.3451892 464.11405917 -7.33514055 451.94841765 -7.31719017 439.78274155 C-7.29945555 427.73247919 -7.28789566 415.68223714 -7.28463173 403.63196182 C-7.28442551 402.88347204 -7.28421929 402.13498226 -7.28400682 401.36381097 C-7.28299186 397.56280465 -7.2820877 393.76179832 -7.2812262 389.96079196 C-7.27492041 363.01925762 -7.25469567 336.07774984 -7.22631836 309.13623047 C-7.19877731 282.95849753 -7.17752048 256.78077186 -7.16479492 230.60302734 C-7.16440034 229.7965002 -7.16400576 228.98997306 -7.16359923 228.15900571 C-7.15964376 220.05972904 -7.15581631 211.96045232 -7.15208265 203.86117555 C-7.14447346 187.36115481 -7.1360097 170.86113455 -7.12702942 154.3611145 C-7.12661755 153.60242506 -7.12620568 152.84373562 -7.12578133 152.0620556 C-7.09816669 101.37469247 -7.05056735 50.68734483 -7 0 C-4.24057227 -1.37971386 -2.91332611 -0.90822064 0 0 Z " fill="#FFFFFF" transform="translate(480,236)"/>
<path d="M0 0 C50.55843078 -0.02286409 101.11686104 -0.04049706 151.67529598 -0.05106533 C157.63745318 -0.05231611 163.59961038 -0.05361043 169.56176758 -0.05493164 C171.34228521 -0.05532511 171.34228521 -0.05532511 173.15877289 -0.05572652 C192.4057149 -0.06008372 211.65265394 -0.06797154 230.89959418 -0.0771528 C250.63300537 -0.08648795 270.366415 -0.09205531 290.0998283 -0.09408849 C302.28688038 -0.09546401 314.47392406 -0.09981614 326.66097356 -0.10791647 C335.00595189 -0.11318222 343.35092586 -0.11480469 351.69590574 -0.11350138 C356.51819492 -0.11285773 361.34046937 -0.11387852 366.16275597 -0.11920547 C370.56990669 -0.1240386 374.97703267 -0.12433923 379.38418449 -0.12089889 C380.98580726 -0.12047311 382.58743152 -0.12176958 384.18905132 -0.12488318 C386.35168398 -0.12884584 388.51422505 -0.12676424 390.67685604 -0.12304783 C392.48527411 -0.12361741 392.48527411 -0.12361741 394.33022588 -0.1241985 C397 0 397 0 398 1 C397.77701525 7.33117406 395.56864406 10.59278047 391.75 15.3125 C390.64673024 16.72783749 389.54522975 18.14455556 388.4453125 19.5625 C387.58921387 20.65691406 387.58921387 20.65691406 386.71582031 21.7734375 C383.92959397 25.38903003 381.28010971 29.10014284 378.625 32.8125 C374.12609089 39.0738196 369.58299018 45.29996861 365 51.5 C360.4624024 57.64009722 355.9603334 63.80354778 351.5 70 C344.15996467 80.19356463 336.69545394 90.29401627 329.22949219 100.39550781 C322.40034581 109.63804661 315.6079307 118.9038828 308.89428711 128.23071289 C304.38568587 134.4862521 299.81319395 140.69318346 295.23046875 146.89453125 C291.28584489 152.23857821 287.38041885 157.60918549 283.5 163 C276.15996467 173.19356463 268.69545394 183.29401627 261.22949219 193.39550781 C254.40034581 202.63804661 247.6079307 211.9038828 240.89428711 221.23071289 C236.38568587 227.4862521 231.81319395 233.69318346 227.23046875 239.89453125 C223.28584489 245.23857821 219.38041885 250.60918549 215.5 256 C208.15996467 266.19356463 200.69545394 276.29401627 193.22949219 286.39550781 C186.94498265 294.90093735 180.67980365 303.41808621 174.5 312 C167.15975779 322.19341866 159.69545642 332.29401291 152.22949219 342.39550781 C145.40034581 351.63804661 138.6079307 360.9038828 131.89428711 370.23071289 C127.38568587 376.4862521 122.81319395 382.69318346 118.23046875 388.89453125 C114.28584489 394.23857821 110.38041885 399.60918549 106.5 405 C99.15996467 415.19356463 91.69545394 425.29401627 84.22949219 435.39550781 C77.40034581 444.63804661 70.6079307 453.9038828 63.89428711 463.23071289 C59.38568587 469.4862521 54.81319395 475.69318346 50.23046875 481.89453125 C46.28584427 487.23857905 42.38048116 492.60922967 38.5 498 C32.86731376 505.82074511 27.1835501 513.60195844 21.4375 521.33984375 C19.12877772 524.45230957 16.86336914 527.59051015 14.625 530.75390625 C14.0875415 531.50140137 13.55008301 532.24889648 12.99633789 533.01904297 C11.98249904 534.42936664 10.98092601 535.84861728 9.99389648 537.27783203 C6.66169541 541.86575676 6.66169541 541.86575676 3.28515625 542.55078125 C1 542 1 542 -1 540 C-1.1966397 537.08779242 -1.26577228 534.27073981 -1.24888897 531.35734558 C-1.25149625 530.44729204 -1.25410354 529.5372385 -1.25678983 528.59960759 C-1.26314242 525.51579951 -1.25509433 522.43219102 -1.24723816 519.34838867 C-1.24882473 517.12894458 -1.2512868 514.90950096 -1.25455457 512.69005871 C-1.2609984 506.56436864 -1.25487658 500.43874416 -1.24679029 494.31305838 C-1.24090856 488.39375467 -1.24437965 482.47446163 -1.2476195 476.55515698 C-1.2539042 464.44151875 -1.25071215 452.32789995 -1.24202538 440.21426392 C-1.23342178 428.21424174 -1.22850496 416.21422829 -1.22869301 404.21420288 C-1.22870065 403.46877604 -1.2287083 402.7233492 -1.22871618 401.95533367 C-1.22875708 398.92968113 -1.22882269 395.90402859 -1.22892199 392.87837605 C-1.22982879 364.47426015 -1.21987221 336.07015758 -1.20449232 307.66604631 C-1.19086769 282.41050029 -1.18463101 257.15496373 -1.18530273 231.89941406 C-1.18534315 230.27785107 -1.18538351 228.65628807 -1.18542381 227.03472507 C-1.18544416 226.23306922 -1.18546452 225.43141337 -1.18548548 224.60546492 C-1.18558627 220.57034555 -1.18567686 216.53522618 -1.18575573 212.50010681 C-1.1857808 211.30610163 -1.1857808 211.30610163 -1.18580638 210.08797514 C-1.18617127 189.00750476 -1.18163587 167.92703558 -1.17542917 146.8465662 C-1.17520889 146.09701684 -1.17498862 145.34746748 -1.17476168 144.5752045 C-1.17387341 141.5608494 -1.17298502 138.5464943 -1.17207072 135.5321392 C-1.1689068 125.02965073 -1.16740095 114.52716319 -1.16695923 104.02467427 C-1.166363 90.49265535 -1.16238598 76.96064425 -1.15252777 63.42862868 C-1.1478968 56.89890518 -1.14486904 50.36919135 -1.14612198 43.83946609 C-1.14721169 37.87120198 -1.14373146 31.90295929 -1.13647345 25.93469965 C-1.13465026 23.76650207 -1.13453932 21.59830229 -1.13624074 19.43010461 C-1.13828613 16.5009286 -1.13427692 13.57182416 -1.12863445 10.64265442 C-1.13068977 9.78534229 -1.13274509 8.92803017 -1.13486269 8.04473889 C-1.11415491 2.22830983 -1.11415491 2.22830983 0 0 Z " fill="#FFFFFF" transform="translate(1059,236)"/>
<path d="M0 0 C1.20561205 0.00037972 2.4112241 0.00075944 3.65336984 0.00115067 C4.32480804 -0.00000318 4.99624624 -0.00115702 5.68803105 -0.00234583 C7.96609006 -0.005019 10.24408016 -0.00048463 12.52213567 0.00394398 C14.16054464 0.00350842 15.79895355 0.0026338 17.43736207 0.00135481 C21.96153634 -0.00089315 26.48568716 0.00313523 31.00985843 0.00813287 C35.88037034 0.01243289 40.75088082 0.01099127 45.6213941 0.0102306 C54.06717838 0.00970508 62.51295497 0.01285481 70.95873731 0.01846844 C83.17007044 0.02657964 95.38139982 0.02919827 107.59273534 0.03045643 C127.40261386 0.03264755 147.21248827 0.03930926 167.02236456 0.04875904 C186.27106226 0.05793161 205.51975886 0.0650132 224.76845831 0.06926686 C225.95403283 0.06952958 227.13960735 0.0697923 228.36110837 0.07006299 C234.30851402 0.07136798 240.25591967 0.0726317 246.20332533 0.07387489 C295.57896169 0.08424937 344.95459359 0.10186931 394.33022588 0.1241985 C395.98511273 3.4339722 395.46758303 7.12845197 395.45886034 10.76685292 C395.46061338 11.67690645 395.46236641 12.58695999 395.46417257 13.52459091 C395.46886604 16.60834535 395.46635853 19.69205333 395.46393865 22.77580982 C395.46580494 24.99525354 395.46810491 27.21469693 395.47080398 29.43413979 C395.47695086 35.5598103 395.47678501 41.68546722 395.4756096 47.81114012 C395.47542717 53.73044279 395.47991022 59.64974069 395.48422249 65.56904152 C395.49390894 79.177417 395.4967072 92.78578872 395.49727955 106.39416724 C395.4977385 116.89944402 395.49979376 127.40471932 395.50298017 137.90999562 C395.50387767 140.93025197 395.50476748 143.95050834 395.50565505 146.9707647 C395.50598662 148.09691828 395.50598662 148.09691828 395.50632489 149.24582245 C395.51248164 170.37198326 395.51642519 191.49814356 395.51598161 212.62430531 C395.51596604 213.42130166 395.51595046 214.21829801 395.51593441 215.03944577 C395.51585129 219.0792717 395.51575225 223.11909763 395.5156497 227.15892357 C395.51561978 228.36248527 395.51561978 228.36248527 395.51558926 229.59036134 C395.51554882 231.21295829 395.51550702 232.83555524 395.51546387 234.45815219 C395.51485086 259.71370202 395.52236139 284.96923844 395.53603643 310.22478443 C395.55138108 338.57573519 395.56000365 366.92667713 395.55907321 395.2776323 C395.55899857 398.29788866 395.55894987 401.31814502 395.55891889 404.33840138 C395.55890141 405.45396204 395.55890141 405.45396204 395.55888358 406.59205929 C395.55885274 418.58454713 395.56525127 430.57702336 395.57385116 442.56950775 C395.58230828 454.61153368 395.58333287 466.65354256 395.57674184 478.69556981 C395.57346112 485.22530608 395.57347543 491.75500008 395.58209509 498.2847324 C395.58989295 504.25301397 395.58859829 510.22121929 395.57981095 516.18949884 C395.57826102 518.35769751 395.58014743 520.52590169 395.58567103 522.69409388 C395.59264382 525.6233386 395.58750705 528.55230927 395.57911485 531.48154408 C395.58408303 532.3388562 395.58905121 533.19616833 395.59416994 534.07945961 C395.55852207 539.89590231 395.55852207 539.89590231 393.33022588 542.1241985 C390.98647588 542.585136 390.98647588 542.585136 388.33022588 542.1241985 C386.11147588 539.913261 386.11147588 539.913261 383.83022588 536.7491985 C383.40644659 536.1712151 382.98266729 535.5932317 382.5460462 534.99773365 C381.12474662 533.05099323 379.72766763 531.08811998 378.33022588 529.1241985 C377.31596415 527.7221696 376.30030383 526.32115157 375.28335088 524.9210735 C373.09844204 521.9084048 370.92279444 518.88931052 368.75210088 515.866386 C365.31593466 511.09086452 361.8279393 506.35474434 358.33022588 501.6241985 C353.79254075 495.48416678 349.29055844 489.32064954 344.83022588 483.1241985 C338.07038839 473.73639077 331.20605244 464.42723354 324.33022588 455.1241985 C316.90962915 445.08408609 309.51826549 435.02622342 302.22451299 424.89348561 C298.29623708 419.44312913 294.32310553 414.02736676 290.33022588 408.6241985 C285.79271577 402.4840358 281.29056012 396.32065188 276.83022588 390.1241985 C270.07038839 380.73639077 263.20605244 371.42723354 256.33022588 362.1241985 C248.90962915 352.08408609 241.51826549 342.02622342 234.22451299 331.89348561 C230.29623708 326.44312913 226.32310553 321.02736676 222.33022588 315.6241985 C217.79271577 309.4840358 213.29056012 303.32065188 208.83022588 297.1241985 C202.07038839 287.73639077 195.20605244 278.42723354 188.33022588 269.1241985 C180.90962915 259.08408609 173.51826549 249.02622342 166.22451299 238.89348561 C162.29623708 233.44312913 158.32310553 228.02736676 154.33022588 222.6241985 C149.79271577 216.4840358 145.29056012 210.32065188 140.83022588 204.1241985 C134.07038839 194.73639077 127.20605244 185.42723354 120.33022588 176.1241985 C112.90901093 166.08324964 105.51850782 156.02353445 98.22231573 145.89128834 C91.99360186 137.25170245 85.66068574 128.68934909 79.33022588 120.1241985 C71.90962915 110.08408609 64.51826549 100.02622342 57.22451299 89.89348561 C53.29623708 84.44312913 49.32310553 79.02736676 45.33022588 73.6241985 C40.79271577 67.4840358 36.29056012 61.32065188 31.83022588 55.1241985 C27.38600828 48.95223646 22.90605796 42.80830154 18.39272588 36.6866985 C17.53481451 35.51832447 17.53481451 35.51832447 16.65957159 34.32634693 C13.60175831 30.16933093 10.51055301 26.04281376 7.36928838 21.94841725 C6.40237066 20.67405812 6.40237066 20.67405812 5.41591924 19.37395436 C4.18305698 17.75038179 2.93961886 16.13476644 1.68398565 14.52873951 C-1.72325026 10.01618739 -3.57344475 6.84468106 -3.66977412 1.1241985 C-2.66977412 0.1241985 -2.66977412 0.1241985 0 0 Z " fill="#FFFFFF" transform="translate(586.6697741150856,235.8758015036583)"/>
<path d="M0 0 C1.20561205 0.00037972 2.4112241 0.00075944 3.65336984 0.00115067 C4.32480804 -0.00000318 4.99624624 -0.00115702 5.68803105 -0.00234583 C7.96609006 -0.005019 10.24408016 -0.00048463 12.52213567 0.00394398 C14.16054464 0.00350842 15.79895355 0.0026338 17.43736207 0.00135481 C21.96153634 -0.00089315 26.48568716 0.00313523 31.00985843 0.00813287 C35.88037034 0.01243289 40.75088082 0.01099127 45.6213941 0.0102306 C54.06717838 0.00970508 62.51295497 0.01285481 70.95873731 0.01846844 C83.17007044 0.02657964 95.38139982 0.02919827 107.59273534 0.03045643 C127.40261386 0.03264755 147.21248827 0.03930926 167.02236456 0.04875904 C186.27106226 0.05793161 205.51975886 0.0650132 224.76845831 0.06926686 C225.95403283 0.06952958 227.13960735 0.0697923 228.36110837 0.07006299 C234.30851402 0.07136798 240.25591967 0.0726317 246.20332533 0.07387489 C295.57896169 0.08424937 344.95459359 0.10186931 394.33022588 0.1241985 C395.98511273 3.4339722 395.46758303 7.12845197 395.45886034 10.76685292 C395.46061338 11.67690645 395.46236641 12.58695999 395.46417257 13.52459091 C395.46886604 16.60834535 395.46635853 19.69205333 395.46393865 22.77580982 C395.46580494 24.99525354 395.46810491 27.21469693 395.47080398 29.43413979 C395.47695086 35.5598103 395.47678501 41.68546722 395.4756096 47.81114012 C395.47542717 53.73044279 395.47991022 59.64974069 395.48422249 65.56904152 C395.49390894 79.177417 395.4967072 92.78578872 395.49727955 106.39416724 C395.4977385 116.89944402 395.49979376 127.40471932 395.50298017 137.90999562 C395.50387767 140.93025197 395.50476748 143.95050834 395.50565505 146.9707647 C395.50598662 148.09691828 395.50598662 148.09691828 395.50632489 149.24582245 C395.51248164 170.37198326 395.51642519 191.49814356 395.51598161 212.62430531 C395.51596604 213.42130166 395.51595046 214.21829801 395.51593441 215.03944577 C395.51585129 219.0792717 395.51575225 223.11909763 395.5156497 227.15892357 C395.51561978 228.36248527 395.51561978 228.36248527 395.51558926 229.59036134 C395.51554882 231.21295829 395.51550702 232.83555524 395.51546387 234.45815219 C395.51485086 259.71370202 395.52236139 284.96923844 395.53603643 310.22478443 C395.55138108 338.57573519 395.56000365 366.92667713 395.55907321 395.2776323 C395.55899857 398.29788866 395.55894987 401.31814502 395.55891889 404.33840138 C395.55890141 405.45396204 395.55890141 405.45396204 395.55888358 406.59205929 C395.55885274 418.58454713 395.56525127 430.57702336 395.57385116 442.56950775 C395.58230828 454.61153368 395.58333287 466.65354256 395.57674184 478.69556981 C395.57346112 485.22530608 395.57347543 491.75500008 395.58209509 498.2847324 C395.58989295 504.25301397 395.58859829 510.22121929 395.57981095 516.18949884 C395.57826102 518.35769751 395.58014743 520.52590169 395.58567103 522.69409388 C395.59264382 525.6233386 395.58750705 528.55230927 395.57911485 531.48154408 C395.58408303 532.3388562 395.58905121 533.19616833 395.59416994 534.07945961 C395.55852207 539.89590231 395.55852207 539.89590231 393.33022588 542.1241985 C391.08413213 542.71404225 391.08413213 542.71404225 388.33022588 542.1241985 C385.95134177 539.91587282 384.1480302 537.32157426 382.26772588 534.6866985 C381.70045782 533.91825611 381.13318975 533.14981373 380.54873174 532.35808522 C378.78880322 529.96082739 377.05535015 527.54659761 375.33022588 525.1241985 C374.8200794 524.40892994 374.30993292 523.69366139 373.78432745 522.95671803 C371.81860956 520.19133103 369.86182471 517.41997178 367.91738409 514.63957936 C362.45747836 506.83475407 356.78704878 499.18850112 351.11684698 491.53581959 C343.08883625 480.69943123 335.10305392 469.83529555 327.22231573 458.89128834 C320.99360186 450.25170245 314.66068574 441.68934909 308.33022588 433.1241985 C300.90962915 423.08408609 293.51826549 413.02622342 286.22451299 402.89348561 C282.29623708 397.44312913 278.32310553 392.02736676 274.33022588 386.6241985 C269.79271577 380.4840358 265.29056012 374.32065188 260.83022588 368.1241985 C254.07038839 358.73639077 247.20605244 349.42723354 240.33022588 340.1241985 C232.90962915 330.08408609 225.51826549 320.02622342 218.22451299 309.89348561 C214.29623708 304.44312913 210.32310553 299.02736676 206.33022588 293.6241985 C201.79271577 287.4840358 197.29056012 281.32065188 192.83022588 275.1241985 C186.07038839 265.73639077 179.20605244 256.42723354 172.33022588 247.1241985 C164.90962915 237.08408609 157.51826549 227.02622342 150.22451299 216.89348561 C146.29623708 211.44312913 142.32310553 206.02736676 138.33022588 200.6241985 C133.79271577 194.4840358 129.29056012 188.32065188 124.83022588 182.1241985 C118.07038839 172.73639077 111.20605244 163.42723354 104.33022588 154.1241985 C96.90901093 144.08324964 89.51850782 134.02353445 82.22231573 123.89128834 C75.99360186 115.25170245 69.66068574 106.68934909 63.33022588 98.1241985 C55.90962915 88.08408609 48.51826549 78.02622342 41.22451299 67.89348561 C37.29623619 62.44312788 33.323013 57.02743615 29.33022588 51.6241985 C24.23790955 44.73103538 19.17759136 37.81638844 14.18300909 30.8519817 C11.36842954 26.92906134 8.52357356 23.03404383 5.62710088 19.1710735 C5.02325567 18.35775563 4.41941046 17.54443775 3.7972669 16.70647389 C2.63802036 15.14644516 1.4696471 13.59314419 0.29091924 12.04778248 C-3.57118792 6.81983007 -3.57118792 6.81983007 -4.08774287 3.17497975 C-3.45872172 0.08866105 -3.22679633 0.1501113 0 0 Z " fill="#FFFFFF" transform="translate(4.669774115085602,235.8758015036583)"/>
<path d="M0 0 C0.75539063 0.66386719 1.51078125 1.32773437 2.2890625 2.01171875 C17.24972866 15.91845482 26.24225311 36.09321284 27.38671875 56.38671875 C28.17746062 81.29182008 20.4749286 102.77523358 3.3125 121.125 C-13.94519851 137.57374389 -35.24490023 144.69610955 -58.77807617 144.46826172 C-77.63379567 143.92180205 -94.71814015 137.42940104 -109 125 C-109.57492187 124.566875 -110.14984375 124.13375 -110.7421875 123.6875 C-126.37114062 111.58766533 -134.34069004 91.98883797 -137.6875 73.125 C-140.04751637 48.67121334 -133.9497729 27.02534397 -118.5 7.90625 C-104.64698042 -8.35999166 -85.22812485 -17.94620121 -64.125 -20.8125 C-40.57559736 -22.37206309 -17.59755576 -16.14652923 0 0 Z " fill="#FFFFFF" transform="translate(873,21)"/>
<path d="M0 0 C14.84952226 14.1127139 24.23209895 34.69067588 25 55.1640625 C25.4482065 80.24944265 17.79672723 101.15383374 0.41015625 119.54296875 C-16.54653607 135.94204189 -37.80135455 142.7599943 -60.98193359 142.5390625 C-82.19360525 141.92096553 -101.17836824 133.34187603 -116.765625 118.9453125 C-133.58049033 101.11993844 -140.72294609 79.41187247 -140.41796875 55.19140625 C-139.78294927 33.79401089 -129.86044579 14.33875245 -114.78369141 -0.44726562 C-81.93051506 -31.26043936 -32.90432869 -28.82045811 0 0 Z " fill="#FFFFFF" transform="translate(1316.203125,22.9296875)"/>
<path d="M0 0 C17.11614857 13.57451988 26.91141 32.65408361 30.6875 53.9375 C33.03767749 78.28933912 26.74858716 99.9491218 11.6171875 119.07421875 C-3.15911679 136.10735408 -23.40588378 146.26656061 -45.9375 147.9375 C-67.561032 149.05659414 -89.10581577 142.62271023 -105.546875 128.296875 C-106.35640625 127.55953125 -107.1659375 126.8221875 -108 126.0625 C-109.05960938 125.14210937 -109.05960938 125.14210937 -110.140625 124.203125 C-124.64860359 110.83750693 -133.33000572 90.35663896 -134.31640625 70.88671875 C-135.10563602 45.45746791 -127.34412724 24.19824478 -109.875 5.4375 C-79.89625188 -23.40412319 -32.65917688 -24.79722578 0 0 Z " fill="#FFFFFF" transform="translate(238,17.9375)"/>
<path d="M0 0 C0.82886719 0.73734375 1.65773438 1.4746875 2.51171875 2.234375 C17.25776433 16.0545586 26.51465605 35.37479508 27.3359375 55.6640625 C27.73048496 81.44688144 20.67748147 102.50625373 2.875 121.625 C-13.99670284 137.8567417 -35.75998937 144.69262133 -58.77758789 144.46801758 C-78.06429324 143.91061526 -95.73356867 137.15813006 -110 124 C-111.37091797 122.76636719 -111.37091797 122.76636719 -112.76953125 121.5078125 C-129.12377818 106.07083523 -136.79859038 85.95068098 -138.12890625 63.859375 C-138.75439468 41.34179161 -129.83783597 20.45340907 -114.90234375 3.96875 C-101.51963386 -10.09276042 -81.27899223 -19.67685268 -61.8359375 -20.96875 C-38.77966406 -21.22281362 -17.32242564 -15.93545119 0 0 Z " fill="#FFFFFF" transform="translate(521,21)"/>
<path d="M0 0 C1.91015625 1.09765625 1.91015625 1.09765625 4.53515625 3.09765625 C4.86515625 1.77765625 5.19515625 0.45765625 5.53515625 -0.90234375 C12.13515625 -0.90234375 18.73515625 -0.90234375 25.53515625 -0.90234375 C25.62601634 6.60025315 25.69919171 14.10264095 25.74240494 21.60565662 C25.76315955 25.09074887 25.79125007 28.5754408 25.83691406 32.06030273 C25.88923936 36.07930036 25.90820137 40.0978865 25.92578125 44.1171875 C25.94642639 45.35096634 25.96707153 46.58474518 25.98834229 47.85591125 C25.9906441 56.84907773 24.34843195 64.12032232 19.91015625 71.97265625 C13.18927986 77.98607197 5.01406137 80.47826667 -3.875 80.30078125 C-12.71366072 79.60755296 -19.29808122 77.52328683 -25.68359375 71.21875 C-29.40710965 66.78482646 -30.61322952 62.90448603 -30.46484375 57.09765625 C-27.36099164 56.98152421 -24.25769713 56.91043596 -21.15234375 56.84765625 C-20.27126953 56.81414063 -19.39019531 56.780625 -18.48242188 56.74609375 C-16.08028451 56.70955934 -13.8370251 56.71292383 -11.46484375 57.09765625 C-9.5703125 59.0625 -9.5703125 59.0625 -8.46484375 61.09765625 C-4.16667378 62.13240087 -0.72949222 62.2607422 3.53515625 61.09765625 C4.49586059 58.21554323 4.64097508 56.39915581 4.59765625 53.41015625 C4.58863281 52.60191406 4.57960938 51.79367187 4.5703125 50.9609375 C4.55871094 50.34605469 4.54710937 49.73117187 4.53515625 49.09765625 C3.79265625 49.73703125 3.05015625 50.37640625 2.28515625 51.03515625 C-2.74457137 54.80745196 -8.35837581 54.71637327 -14.46484375 54.09765625 C-20.7534227 52.51796522 -24.69414207 49.60793075 -28.24609375 44.2109375 C-28.64828125 43.51355469 -29.05046875 42.81617188 -29.46484375 42.09765625 C-29.80515625 41.51371094 -30.14546875 40.92976562 -30.49609375 40.328125 C-34.11281586 32.64259052 -33.6472673 22.191684 -31.40234375 14.16015625 C-29.05713488 8.30819638 -25.0293273 3.65568745 -19.66796875 0.3984375 C-13.67277317 -2.0361968 -6.11859836 -2.23993062 0 0 Z M-11.46484375 20.09765625 C-13.19354154 23.55505182 -12.9545127 27.31741193 -12.46484375 31.09765625 C-10.67090707 33.96795494 -9.48221099 35.58897263 -6.46484375 37.09765625 C-2.59270193 37.52789423 -0.93988004 37.41434711 2.34765625 35.22265625 C4.57653533 33.05745943 5.44869363 32.1392292 5.703125 29.07421875 C5.70957031 28.29820312 5.71601562 27.5221875 5.72265625 26.72265625 C5.74392578 25.56636719 5.74392578 25.56636719 5.765625 24.38671875 C5.50621193 21.81017537 4.92855779 20.27339952 3.53515625 18.09765625 C-1.98815708 14.41544736 -7.50155304 14.70758089 -11.46484375 20.09765625 Z " fill="#FFFFFF" transform="translate(1147.46484375,865.90234375)"/>
<path d="M0 0 C6.41820154 5.84238915 9.37221348 12.79558399 10.10546875 21.37109375 C10.57026229 32.51411829 8.92407006 41.25759046 1.66015625 50 C-5.69896234 57.63842507 -13.87302404 60.69318848 -24.33984375 60.9375 C-34.36876619 60.83551096 -42.92058231 57.56734531 -50.21484375 50.625 C-58.22436828 41.85092995 -59.9494684 33.36313324 -59.5625 21.76171875 C-59.02220652 13.20029404 -55.16769121 5.74867972 -49.21484375 -0.375 C-34.12381908 -12.5670307 -14.96805962 -11.90302952 0 0 Z M-36.52734375 13.6875 C-39.57263342 18.98855979 -40.87311569 24.81764589 -39.65234375 30.875 C-38.09701464 35.80020884 -35.36647301 39.3793199 -30.83984375 42 C-26.17865348 43.10980721 -22.5390013 43.1183136 -18.02734375 41.4375 C-13.77839863 38.69929093 -11.7906068 36.05069899 -9.90234375 31.375 C-8.79814766 25.35211224 -9.1105894 20.68119776 -12.02734375 15.25 C-15.336993 11.2784209 -17.3989867 9.57575241 -22.52734375 8.75 C-28.24178144 8.29886018 -32.23358634 9.85793258 -36.52734375 13.6875 Z " fill="#FFFFFF" transform="translate(1759.21484375,859.375)"/>
<path d="M0 0 C3.58799552 3.83832079 5.6875 8.52732466 5.6875 13.875 C2.72862541 13.95569658 -0.2280659 14.01534665 -3.1875 14.0625 C-4.02925781 14.08763672 -4.87101563 14.11277344 -5.73828125 14.13867188 C-6.54394531 14.14833984 -7.34960938 14.15800781 -8.1796875 14.16796875 C-8.92331543 14.1836792 -9.66694336 14.19938965 -10.43310547 14.21557617 C-11.05330566 14.10318604 -11.67350586 13.9907959 -12.3125 13.875 C-12.9725 12.885 -13.6325 11.895 -14.3125 10.875 C-16.89630177 10.62469023 -16.89630177 10.62469023 -19.3125 10.875 C-19.37528625 16.12811619 -18.1420268 18.47668938 -14.49609375 22.27734375 C-12.92911122 23.80465584 -11.34647614 25.31604405 -9.75 26.8125 C-8.94369141 27.59173828 -8.13738281 28.37097656 -7.30664062 29.17382812 C-5.32148131 31.08850841 -3.32370861 32.98776347 -1.3125 34.875 C-0.62414062 33.40160156 -0.62414062 33.40160156 0.078125 31.8984375 C2.6875 28.875 2.6875 28.875 4.79882812 28.37988281 C7.36701236 28.28411652 9.87186966 28.3522015 12.4375 28.5 C13.32566406 28.52707031 14.21382812 28.55414062 15.12890625 28.58203125 C17.31758395 28.65263376 19.50129568 28.75114473 21.6875 28.875 C20.24426531 33.61289165 18.31523267 37.86358151 16.0625 42.25 C15.73765625 42.89066406 15.4128125 43.53132812 15.078125 44.19140625 C14.28492593 45.75447501 13.48672969 47.31500622 12.6875 48.875 C13.51894531 49.62265625 14.35039063 50.3703125 15.20703125 51.140625 C16.30485364 52.13523332 17.40250067 53.13003521 18.5 54.125 C19.32081055 54.86169922 19.32081055 54.86169922 20.15820312 55.61328125 C20.95581055 56.33837891 20.95581055 56.33837891 21.76953125 57.078125 C22.25655518 57.51801758 22.7435791 57.95791016 23.24536133 58.41113281 C24.91879762 60.10978255 26.29324613 61.94366001 27.6875 63.875 C23.91681168 63.961985 20.14638068 64.01538579 16.375 64.0625 C15.30314453 64.08763672 14.23128906 64.11277344 13.12695312 64.13867188 C11.58491211 64.15317383 11.58491211 64.15317383 10.01171875 64.16796875 C8.5899231 64.19153442 8.5899231 64.19153442 7.1394043 64.21557617 C4.20793924 63.80838771 3.70509757 62.89537806 1.6875 60.875 C-0.30453481 61.01879181 -0.30453481 61.01879181 -2.3125 61.875 C-2.981604 62.11798828 -3.65070801 62.36097656 -4.34008789 62.61132812 C-5.04383545 62.87365234 -5.74758301 63.13597656 -6.47265625 63.40625 C-11.28605561 65.02089 -15.69566739 65.41515461 -20.75 65.375 C-21.57967285 65.37000488 -22.4093457 65.36500977 -23.26416016 65.35986328 C-30.73669931 65.14736707 -36.34158434 63.50392292 -41.9453125 58.3828125 C-46.46994959 53.39278417 -47.73645331 48.7003965 -47.5625 42.14453125 C-46.87046183 35.86212221 -43.58940011 31.25621475 -39.3125 26.875 C-37.15234375 26.2109375 -37.15234375 26.2109375 -35.3125 25.875 C-35.61285156 25.25753906 -35.91320312 24.64007812 -36.22265625 24.00390625 C-38.93472139 17.96381542 -40.21422973 13.33839517 -38.3125 6.875 C-35.66879059 1.37608442 -31.67575199 -1.49574951 -26.3125 -4.125 C-16.97011789 -7.14418446 -8.01315064 -5.14051173 0 0 Z M-27 37.4375 C-28.90667159 40.97846152 -28.41829562 43.07382756 -27.3125 46.875 C-25.3870356 49.0986068 -25.3870356 49.0986068 -22.3125 49.875 C-19.2573178 49.80847174 -16.31701229 49.41829961 -13.3125 48.875 C-12.98789416 45.71177611 -12.98789416 45.71177611 -15.4296875 43.39453125 C-16.33976563 42.50121094 -17.24984375 41.60789062 -18.1875 40.6875 C-19.09242188 39.78644531 -19.99734375 38.88539063 -20.9296875 37.95703125 C-23.98011821 35.24450236 -23.98011821 35.24450236 -27 37.4375 Z " fill="#FFFFFF" transform="translate(612.3125,855.125)"/>
<path d="M0 0 C6.27 0 12.54 0 19 0 C19.33 7.59 19.66 15.18 20 23 C22.97 20.525 22.97 20.525 26 18 C31.61423637 16.12858788 38.59714453 15.92233149 44.26953125 17.71875 C50.24204364 20.94572837 53.32221966 25.58070817 55.38037109 31.93041992 C56.80991256 39.0122264 56.29904849 46.37077943 56.1875 53.5625 C56.17242858 55.2558475 56.15874451 56.94920794 56.14648438 58.64257812 C56.11623676 62.76230389 56.05748547 66.88020765 56 71 C49.4 71 42.8 71 36 71 C35.97421875 68.66421875 35.9484375 66.3284375 35.921875 63.921875 C35.88343979 61.65466361 35.83828469 59.38767854 35.79248047 57.12060547 C35.76429046 55.54747356 35.74306602 53.97420053 35.72900391 52.40087891 C35.70754558 50.13631044 35.66088652 47.87343496 35.609375 45.609375 C35.60814636 44.90818542 35.60691772 44.20699585 35.60565186 43.48455811 C35.50486884 40.10930493 35.20851864 38.27586081 33.14941406 35.55175781 C30.23122262 33.44498535 28.52555785 33.48585615 25 34 C22.61455056 35.28943213 21.32060223 36.08322998 20.41430664 38.67480469 C19.86175588 41.7758615 19.77698514 44.80450113 19.68359375 47.953125 C19.66281265 48.61334656 19.64203156 49.27356812 19.62062073 49.95379639 C19.55549853 52.05243015 19.49641498 54.15118372 19.4375 56.25 C19.39427921 57.67709547 19.3506638 59.10417905 19.30664062 60.53125 C19.19911649 64.02071259 19.09976715 67.51027257 19 71 C12.73 71 6.46 71 0 71 C0 47.57 0 24.14 0 0 Z " fill="#FFFFFF" transform="translate(836,848)"/>
<path d="M0 0 C1.91015625 1.09765625 1.91015625 1.09765625 4.53515625 3.09765625 C4.86515625 1.77765625 5.19515625 0.45765625 5.53515625 -0.90234375 C12.13515625 -0.90234375 18.73515625 -0.90234375 25.53515625 -0.90234375 C25.53515625 16.91765625 25.53515625 34.73765625 25.53515625 53.09765625 C18.93515625 53.09765625 12.33515625 53.09765625 5.53515625 53.09765625 C5.04015625 51.11765625 5.04015625 51.11765625 4.53515625 49.09765625 C3.79265625 49.73703125 3.05015625 50.37640625 2.28515625 51.03515625 C-2.74457137 54.80745196 -8.35837581 54.71637327 -14.46484375 54.09765625 C-20.7534227 52.51796522 -24.69414207 49.60793075 -28.24609375 44.2109375 C-28.64828125 43.51355469 -29.05046875 42.81617188 -29.46484375 42.09765625 C-29.80515625 41.51371094 -30.14546875 40.92976562 -30.49609375 40.328125 C-34.11281586 32.64259052 -33.6472673 22.191684 -31.40234375 14.16015625 C-29.05713488 8.30819638 -25.0293273 3.65568745 -19.66796875 0.3984375 C-13.67277317 -2.0361968 -6.11859836 -2.23993062 0 0 Z M-11.46484375 20.09765625 C-13.19354154 23.55505182 -12.9545127 27.31741193 -12.46484375 31.09765625 C-10.67090707 33.96795494 -9.48221099 35.58897263 -6.46484375 37.09765625 C-2.59270193 37.52789423 -0.93988004 37.41434711 2.34765625 35.22265625 C4.57653533 33.05745943 5.44869363 32.1392292 5.703125 29.07421875 C5.70957031 28.29820312 5.71601562 27.5221875 5.72265625 26.72265625 C5.74392578 25.56636719 5.74392578 25.56636719 5.765625 24.38671875 C5.50621193 21.81017537 4.92855779 20.27339952 3.53515625 18.09765625 C-1.98815708 14.41544736 -7.50155304 14.70758089 -11.46484375 20.09765625 Z " fill="#FFFFFF" transform="translate(1392.46484375,865.90234375)"/>
<path d="M0 0 C1.91015625 1.09765625 1.91015625 1.09765625 4.53515625 3.09765625 C4.86515625 1.77765625 5.19515625 0.45765625 5.53515625 -0.90234375 C12.13515625 -0.90234375 18.73515625 -0.90234375 25.53515625 -0.90234375 C25.53515625 16.91765625 25.53515625 34.73765625 25.53515625 53.09765625 C18.93515625 53.09765625 12.33515625 53.09765625 5.53515625 53.09765625 C5.04015625 51.11765625 5.04015625 51.11765625 4.53515625 49.09765625 C3.79265625 49.73703125 3.05015625 50.37640625 2.28515625 51.03515625 C-2.74457137 54.80745196 -8.35837581 54.71637327 -14.46484375 54.09765625 C-20.7534227 52.51796522 -24.69414207 49.60793075 -28.24609375 44.2109375 C-28.64828125 43.51355469 -29.05046875 42.81617188 -29.46484375 42.09765625 C-29.80515625 41.51371094 -30.14546875 40.92976562 -30.49609375 40.328125 C-34.11281586 32.64259052 -33.6472673 22.191684 -31.40234375 14.16015625 C-29.05713488 8.30819638 -25.0293273 3.65568745 -19.66796875 0.3984375 C-13.67277317 -2.0361968 -6.11859836 -2.23993062 0 0 Z M-11.46484375 20.09765625 C-13.19354154 23.55505182 -12.9545127 27.31741193 -12.46484375 31.09765625 C-10.67090707 33.96795494 -9.48221099 35.58897263 -6.46484375 37.09765625 C-2.59270193 37.52789423 -0.93988004 37.41434711 2.34765625 35.22265625 C4.57653533 33.05745943 5.44869363 32.1392292 5.703125 29.07421875 C5.70957031 28.29820312 5.71601563 27.5221875 5.72265625 26.72265625 C5.74392578 25.56636719 5.74392578 25.56636719 5.765625 24.38671875 C5.50621193 21.81017537 4.92855779 20.27339952 3.53515625 18.09765625 C-1.98815708 14.41544736 -7.50155304 14.70758089 -11.46484375 20.09765625 Z " fill="#FFFFFF" transform="translate(317.46484375,865.90234375)"/>
<path d="M0 0 C7.26 0 14.52 0 22 0 C25.3 8.91 28.6 17.82 32 27 C33.83117927 24.2532311 34.81267829 22.04450412 35.91015625 18.96484375 C36.26013672 17.99095703 36.61011719 17.01707031 36.97070312 16.01367188 C37.33099609 14.99853516 37.69128906 13.98339844 38.0625 12.9375 C38.7815531 10.92542397 39.50155809 8.91368777 40.22265625 6.90234375 C40.53984619 6.01023193 40.85703613 5.11812012 41.18383789 4.19897461 C42 2 42 2 43 0 C49.93 0 56.86 0 64 0 C63.24261617 3.78691915 62.52102062 6.44025783 61.02563477 9.88427734 C60.61753067 10.83072113 60.20942657 11.77716492 59.78895569 12.75228882 C59.34426437 13.76989288 58.89957306 14.78749695 58.44140625 15.8359375 C57.97822495 16.90631256 57.51504364 17.97668762 57.03782654 19.07949829 C55.55061795 22.51333347 54.05666496 25.94418688 52.5625 29.375 C51.59135225 31.61439057 50.62064486 33.85397216 49.65039062 36.09375 C47.72658307 40.53257078 45.79879019 44.96962684 43.86767578 49.40527344 C41.93154908 53.8532726 40.00343783 58.30462254 38.08154297 62.75878906 C37.38882545 64.36120956 37.38882545 64.36120956 36.68211365 65.9960022 C35.80467023 68.02611065 34.92899468 70.05698436 34.05531311 72.0887146 C33.66701828 72.98579132 33.27872345 73.88286804 32.87866211 74.80712891 C32.53854599 75.59600494 32.19842987 76.38488098 31.8480072 77.19766235 C31 79 31 79 30 80 C28.43827255 80.08685603 26.87270656 80.10702219 25.30859375 80.09765625 C24.36435547 80.09443359 23.42011719 80.09121094 22.44726562 80.08789062 C21.45404297 80.07951172 20.46082031 80.07113281 19.4375 80.0625 C18.44041016 80.05798828 17.44332031 80.05347656 16.41601562 80.04882812 C13.94395151 80.03700007 11.47200482 80.02051849 9 80 C10.83851724 75.16428585 12.73124382 70.44560994 15.15234375 65.8671875 C15.52746094 65.13749756 15.90257812 64.40780762 16.2890625 63.65600586 C17.04211977 62.2012798 17.81887627 60.75852752 18.62109375 59.33032227 C20.07874812 56.47094834 21.22497298 54.20628125 20.62103271 50.96801758 C20.36549622 50.27216553 20.10995972 49.57631348 19.84667969 48.859375 C19.55929428 48.07211533 19.27190887 47.28485565 18.97581482 46.47373962 C17.32154523 42.28008305 15.57394338 38.13502684 13.76953125 34.00390625 C13.37424728 33.08915024 12.97896332 32.17439423 12.57170105 31.23191833 C11.32216602 28.3405673 10.06792279 25.45129899 8.8125 22.5625 C7.14822482 18.73223589 5.48868943 14.89996994 3.83203125 11.06640625 C3.44771439 10.18626358 3.06339752 9.30612091 2.66743469 8.39930725 C2.31674423 7.58763596 1.96605377 6.77596466 1.60473633 5.93969727 C1.29401688 5.22515884 0.98329742 4.51062042 0.66316223 3.77442932 C0 2 0 2 0 0 Z " fill="#FFFFFF" transform="translate(1176,865)"/>
<path d="M0 0 C6.27 0 12.54 0 19 0 C19.33 1.98 19.66 3.96 20 6 C20.928125 5.195625 21.85625 4.39125 22.8125 3.5625 C27.65537099 -0.63465486 32.57863456 -0.33627188 38.76171875 -0.28125 C44.35254533 0.20432239 47.23164198 2.28076303 51.25 6.1875 C57.21280972 15.77058705 56.35573394 25.71617245 56.1875 36.5625 C56.17242858 38.2558475 56.15874451 39.94920794 56.14648438 41.64257812 C56.11623676 45.76230389 56.05748547 49.88020765 56 54 C49.4 54 42.8 54 36 54 C35.97421875 51.66421875 35.9484375 49.3284375 35.921875 46.921875 C35.88343979 44.65466361 35.83828469 42.38767854 35.79248047 40.12060547 C35.76429046 38.54747356 35.74306602 36.97420053 35.72900391 35.40087891 C35.70754558 33.13631044 35.66088652 30.87343496 35.609375 28.609375 C35.60814636 27.90818542 35.60691772 27.20699585 35.60565186 26.48455811 C35.50486884 23.10930493 35.20851864 21.27586081 33.14941406 18.55175781 C30.23122262 16.44498535 28.52555785 16.48585615 25 17 C22.61455056 18.28943213 21.32060223 19.08322998 20.41430664 21.67480469 C19.86175588 24.7758615 19.77698514 27.80450113 19.68359375 30.953125 C19.66281265 31.61334656 19.64203156 32.27356812 19.62062073 32.95379639 C19.55549853 35.05243015 19.49641498 37.15118372 19.4375 39.25 C19.39427921 40.67709547 19.3506638 42.10417905 19.30664062 43.53125 C19.19911649 47.02071259 19.09976715 50.51027257 19 54 C12.73 54 6.46 54 0 54 C0 36.18 0 18.36 0 0 Z " fill="#FFFFFF" transform="translate(1428,865)"/>
<path d="M0 0 C6.27 0 12.54 0 19 0 C19.33 1.98 19.66 3.96 20 6 C20.928125 5.195625 21.85625 4.39125 22.8125 3.5625 C27.65537099 -0.63465486 32.57863456 -0.33627188 38.76171875 -0.28125 C44.35254533 0.20432239 47.23164198 2.28076303 51.25 6.1875 C57.21280972 15.77058705 56.35573394 25.71617245 56.1875 36.5625 C56.17242858 38.2558475 56.15874451 39.94920794 56.14648438 41.64257812 C56.11623676 45.76230389 56.05748547 49.88020765 56 54 C49.4 54 42.8 54 36 54 C35.97421875 51.66421875 35.9484375 49.3284375 35.921875 46.921875 C35.88343979 44.65466361 35.83828469 42.38767854 35.79248047 40.12060547 C35.76429046 38.54747356 35.74306602 36.97420053 35.72900391 35.40087891 C35.70754558 33.13631044 35.66088652 30.87343496 35.609375 28.609375 C35.60814636 27.90818542 35.60691772 27.20699585 35.60565186 26.48455811 C35.50486884 23.10930493 35.20851864 21.27586081 33.14941406 18.55175781 C30.23122262 16.44498535 28.52555785 16.48585615 25 17 C22.61455056 18.28943213 21.32060223 19.08322998 20.41430664 21.67480469 C19.86175588 24.7758615 19.77698514 27.80450113 19.68359375 30.953125 C19.66281265 31.61334656 19.64203156 32.27356812 19.62062073 32.95379639 C19.55549853 35.05243015 19.49641498 37.15118372 19.4375 39.25 C19.39427921 40.67709547 19.3506638 42.10417905 19.30664062 43.53125 C19.19911649 47.02071259 19.09976715 50.51027257 19 54 C12.73 54 6.46 54 0 54 C0 36.18 0 18.36 0 0 Z " fill="#FFFFFF" transform="translate(902,865)"/>
<path d="M0 0 C6.27 0 12.54 0 19 0 C19.33 1.98 19.66 3.96 20 6 C20.928125 5.195625 21.85625 4.39125 22.8125 3.5625 C27.65537099 -0.63465486 32.57863456 -0.33627188 38.76171875 -0.28125 C44.35254533 0.20432239 47.23164198 2.28076303 51.25 6.1875 C57.21280972 15.77058705 56.35573394 25.71617245 56.1875 36.5625 C56.17242858 38.2558475 56.15874451 39.94920794 56.14648438 41.64257812 C56.11623676 45.76230389 56.05748547 49.88020765 56 54 C49.4 54 42.8 54 36 54 C35.97421875 51.66421875 35.9484375 49.3284375 35.921875 46.921875 C35.88343979 44.65466361 35.83828469 42.38767854 35.79248047 40.12060547 C35.76429046 38.54747356 35.74306602 36.97420053 35.72900391 35.40087891 C35.70754558 33.13631044 35.66088652 30.87343496 35.609375 28.609375 C35.60814636 27.90818542 35.60691772 27.20699585 35.60565186 26.48455811 C35.50486884 23.10930493 35.20851864 21.27586081 33.14941406 18.55175781 C30.23122262 16.44498535 28.52555785 16.48585615 25 17 C22.61455056 18.28943213 21.32060223 19.08322998 20.41430664 21.67480469 C19.86175588 24.7758615 19.77698514 27.80450113 19.68359375 30.953125 C19.66281265 31.61334656 19.64203156 32.27356812 19.62062073 32.95379639 C19.55549853 35.05243015 19.49641498 37.15118372 19.4375 39.25 C19.39427921 40.67709547 19.3506638 42.10417905 19.30664062 43.53125 C19.19911649 47.02071259 19.09976715 50.51027257 19 54 C12.73 54 6.46 54 0 54 C0 36.18 0 18.36 0 0 Z " fill="#FFFFFF" transform="translate(483,865)"/>
<path d="M0 0 C6.27 0 12.54 0 19 0 C19.33 1.98 19.66 3.96 20 6 C20.928125 5.195625 21.85625 4.39125 22.8125 3.5625 C27.65537099 -0.63465486 32.57863456 -0.33627188 38.76171875 -0.28125 C44.35254533 0.20432239 47.23164198 2.28076303 51.25 6.1875 C57.21280972 15.77058705 56.35573394 25.71617245 56.1875 36.5625 C56.17242858 38.2558475 56.15874451 39.94920794 56.14648438 41.64257812 C56.11623676 45.76230389 56.05748547 49.88020765 56 54 C49.4 54 42.8 54 36 54 C35.97421875 51.66421875 35.9484375 49.3284375 35.921875 46.921875 C35.88343979 44.65466361 35.83828469 42.38767854 35.79248047 40.12060547 C35.76429046 38.54747356 35.74306602 36.97420053 35.72900391 35.40087891 C35.70754558 33.13631044 35.66088652 30.87343496 35.609375 28.609375 C35.60814636 27.90818542 35.60691772 27.20699585 35.60565186 26.48455811 C35.50486884 23.10930493 35.20851864 21.27586081 33.14941406 18.55175781 C30.23122262 16.44498535 28.52555785 16.48585615 25 17 C22.61455056 18.28943213 21.32060223 19.08322998 20.41430664 21.67480469 C19.86175588 24.7758615 19.77698514 27.80450113 19.68359375 30.953125 C19.66281265 31.61334656 19.64203156 32.27356812 19.62062073 32.95379639 C19.55549853 35.05243015 19.49641498 37.15118372 19.4375 39.25 C19.39427921 40.67709547 19.3506638 42.10417905 19.30664062 43.53125 C19.19911649 47.02071259 19.09976715 50.51027257 19 54 C12.73 54 6.46 54 0 54 C0 36.18 0 18.36 0 0 Z " fill="#FFFFFF" transform="translate(101,865)"/>
<path d="M0 0 C6.27 0 12.54 0 19 0 C19.33 1.98 19.66 3.96 20 6 C20.928125 5.195625 21.85625 4.39125 22.8125 3.5625 C27.65537099 -0.63465486 32.57863456 -0.33627188 38.76171875 -0.28125 C44.35254533 0.20432239 47.23164198 2.28076303 51.25 6.1875 C57.21280972 15.77058705 56.35573394 25.71617245 56.1875 36.5625 C56.17242858 38.2558475 56.15874451 39.94920794 56.14648438 41.64257812 C56.11623676 45.76230389 56.05748547 49.88020765 56 54 C49.4 54 42.8 54 36 54 C35.97421875 51.66421875 35.9484375 49.3284375 35.921875 46.921875 C35.88343979 44.65466361 35.83828469 42.38767854 35.79248047 40.12060547 C35.76429046 38.54747356 35.74306602 36.97420053 35.72900391 35.40087891 C35.70754558 33.13631044 35.66088652 30.87343496 35.609375 28.609375 C35.60814636 27.90818542 35.60691772 27.20699585 35.60565186 26.48455811 C35.50486884 23.10930493 35.20851864 21.27586081 33.14941406 18.55175781 C30.23122262 16.44498535 28.52555785 16.48585615 25 17 C22.61455056 18.28943213 21.32060223 19.08322998 20.41430664 21.67480469 C19.86175588 24.7758615 19.77698514 27.80450113 19.68359375 30.953125 C19.66281265 31.61334656 19.64203156 32.27356812 19.62062073 32.95379639 C19.55549853 35.05243015 19.49641498 37.15118372 19.4375 39.25 C19.39427921 40.67709547 19.3506638 42.10417905 19.30664062 43.53125 C19.19911649 47.02071259 19.09976715 50.51027257 19 54 C12.73 54 6.46 54 0 54 C0 36.18 0 18.36 0 0 Z " fill="#FFFFFF" transform="translate(35,865)"/>
<path d="M0 0 C7.3753237 4.48550351 11.88002016 10.16331194 13.94140625 18.5625 C15.51544583 27.41115496 13.83962121 35.80530871 8.75 43.3125 C4.63722371 48.39177871 -1.18714823 51.80559336 -7.625 53 C-17.08328399 53.79143391 -25.77299109 53.1083936 -33.72265625 47.52734375 C-39.37414511 42.4518028 -42.17496648 36.25486239 -42.96875 28.75 C-43.24013408 18.98017304 -41.23621148 11.33956528 -34.625 4 C-25.41178287 -3.25295816 -10.80844734 -4.93862902 0 0 Z M-17.9375 15.125 C-20.81488252 16.88940969 -20.81488252 16.88940969 -22.625 20 C-22.9418217 22.37755949 -22.9418217 22.37755949 -22.875 24.9375 C-22.88015625 25.79214844 -22.8853125 26.64679687 -22.890625 27.52734375 C-22.60495383 30.18660622 -22.07468995 31.76264518 -20.625 34 C-17.11246854 36.34168764 -15.76030644 36.49623677 -11.625 36 C-8.28738955 33.84909549 -6.89029067 32.79587201 -5.625 29 C-5.07272386 22.58026202 -5.07272386 22.58026202 -7.625 17 C-11.62749357 14.61389806 -13.43958643 13.59740671 -17.9375 15.125 Z " fill="#FFFFFF" transform="translate(1096.625,867)"/>
<path d="M0 0 C7.3753237 4.48550351 11.88002016 10.16331194 13.94140625 18.5625 C15.51544583 27.41115496 13.83962121 35.80530871 8.75 43.3125 C4.63722371 48.39177871 -1.18714823 51.80559336 -7.625 53 C-17.08328399 53.79143391 -25.77299109 53.1083936 -33.72265625 47.52734375 C-39.37414511 42.4518028 -42.17496648 36.25486239 -42.96875 28.75 C-43.24013408 18.98017304 -41.23621148 11.33956528 -34.625 4 C-25.41178287 -3.25295816 -10.80844734 -4.93862902 0 0 Z M-17.9375 15.125 C-20.81488252 16.88940969 -20.81488252 16.88940969 -22.625 20 C-22.9418217 22.37755949 -22.9418217 22.37755949 -22.875 24.9375 C-22.88015625 25.79214844 -22.8853125 26.64679687 -22.890625 27.52734375 C-22.60495383 30.18660622 -22.07468995 31.76264518 -20.625 34 C-17.11246854 36.34168764 -15.76030644 36.49623677 -11.625 36 C-8.28738955 33.84909549 -6.89029067 32.79587201 -5.625 29 C-5.07272386 22.58026202 -5.07272386 22.58026202 -7.625 17 C-11.62749357 14.61389806 -13.43958643 13.59740671 -17.9375 15.125 Z " fill="#FFFFFF" transform="translate(1006.625,867)"/>
<path d="M0 0 C7.3753237 4.48550351 11.88002016 10.16331194 13.94140625 18.5625 C15.51544583 27.41115496 13.83962121 35.80530871 8.75 43.3125 C4.63722371 48.39177871 -1.18714823 51.80559336 -7.625 53 C-17.08328399 53.79143391 -25.77299109 53.1083936 -33.72265625 47.52734375 C-39.37414511 42.4518028 -42.17496648 36.25486239 -42.96875 28.75 C-43.24013408 18.98017304 -41.23621148 11.33956528 -34.625 4 C-25.41178287 -3.25295816 -10.80844734 -4.93862902 0 0 Z M-17.9375 15.125 C-20.81488252 16.88940969 -20.81488252 16.88940969 -22.625 20 C-22.9418217 22.37755949 -22.9418217 22.37755949 -22.875 24.9375 C-22.88015625 25.79214844 -22.8853125 26.64679687 -22.890625 27.52734375 C-22.60495383 30.18660622 -22.07468995 31.76264518 -20.625 34 C-17.11246854 36.34168764 -15.76030644 36.49623677 -11.625 36 C-8.28738955 33.84909549 -6.89029067 32.79587201 -5.625 29 C-5.07272386 22.58026202 -5.07272386 22.58026202 -7.625 17 C-11.62749357 14.61389806 -13.43958643 13.59740671 -17.9375 15.125 Z " fill="#FFFFFF" transform="translate(462.625,867)"/>
<path d="M0 0 C7.3753237 4.48550351 11.88002016 10.16331194 13.94140625 18.5625 C15.51544583 27.41115496 13.83962121 35.80530871 8.75 43.3125 C4.63722371 48.39177871 -1.18714823 51.80559336 -7.625 53 C-17.08328399 53.79143391 -25.77299109 53.1083936 -33.72265625 47.52734375 C-39.37414511 42.4518028 -42.17496648 36.25486239 -42.96875 28.75 C-43.24013408 18.98017304 -41.23621148 11.33956528 -34.625 4 C-25.41178287 -3.25295816 -10.80844734 -4.93862902 0 0 Z M-17.9375 15.125 C-20.81488252 16.88940969 -20.81488252 16.88940969 -22.625 20 C-22.9418217 22.37755949 -22.9418217 22.37755949 -22.875 24.9375 C-22.88015625 25.79214844 -22.8853125 26.64679687 -22.890625 27.52734375 C-22.60495383 30.18660622 -22.07468995 31.76264518 -20.625 34 C-17.11246854 36.34168764 -15.76030644 36.49623677 -11.625 36 C-8.28738955 33.84909549 -6.89029067 32.79587201 -5.625 29 C-5.07272386 22.58026202 -5.07272386 22.58026202 -7.625 17 C-11.62749357 14.61389806 -13.43958643 13.59740671 -17.9375 15.125 Z " fill="#FFFFFF" transform="translate(205.625,867)"/>
<path d="M0 0 C0.74548096 0.00572021 1.49096191 0.01144043 2.2590332 0.01733398 C10.38014264 0.27919149 16.40973036 2.83351022 22.125 8.6875 C27.52127676 15.73476229 27.6875 22.80433168 27.6875 31.5 C15.8075 31.5 3.9275 31.5 -8.3125 31.5 C-6.66172098 35.25170424 -6.66172098 35.25170424 -4.3125 38.5 C-0.89625742 38.83354403 -0.89625742 38.83354403 2.6875 38.5 C3.15647705 38.00588623 3.6254541 37.51177246 4.10864258 37.00268555 C6.27960373 34.93646227 7.619699 35.15331271 10.57421875 35.20703125 C11.9809082 35.2215332 11.9809082 35.2215332 13.41601562 35.23632812 C14.39248047 35.26146484 15.36894531 35.28660156 16.375 35.3125 C17.36306641 35.32603516 18.35113281 35.33957031 19.36914062 35.35351562 C21.80914231 35.38887797 24.24804719 35.43822967 26.6875 35.5 C24.7881357 43.29689047 21.23347461 48.60358687 14.39453125 52.9609375 C6.95618017 56.38282168 -1.29516056 56.83613931 -9.1875 54.734375 C-17.93726558 51.45321291 -22.44328788 46.95274031 -26.3125 38.5 C-28.99994011 30.42077752 -28.26956457 20.34128184 -24.70703125 12.6875 C-19.07452486 3.85219586 -10.23603168 -0.09142414 0 0 Z M-6.3125 17.5 C-6.9725 19.15 -7.6325 20.8 -8.3125 22.5 C-3.0325 22.5 2.2475 22.5 7.6875 22.5 C6.21110997 17.43991361 6.21110997 17.43991361 2.6875 15.5 C-0.86646705 15.13549056 -3.38742952 15.38184551 -6.3125 17.5 Z " fill="#FFFFFF" transform="translate(1959.3125,864.5)"/>
<path d="M0 0 C0.74548096 0.00572021 1.49096191 0.01144043 2.2590332 0.01733398 C10.38014264 0.27919149 16.40973036 2.83351022 22.125 8.6875 C27.52127676 15.73476229 27.6875 22.80433168 27.6875 31.5 C15.8075 31.5 3.9275 31.5 -8.3125 31.5 C-6.66172098 35.25170424 -6.66172098 35.25170424 -4.3125 38.5 C-0.89625742 38.83354403 -0.89625742 38.83354403 2.6875 38.5 C3.15647705 38.00588623 3.6254541 37.51177246 4.10864258 37.00268555 C6.27960373 34.93646227 7.619699 35.15331271 10.57421875 35.20703125 C11.9809082 35.2215332 11.9809082 35.2215332 13.41601562 35.23632812 C14.39248047 35.26146484 15.36894531 35.28660156 16.375 35.3125 C17.36306641 35.32603516 18.35113281 35.33957031 19.36914062 35.35351562 C21.80914231 35.38887797 24.24804719 35.43822967 26.6875 35.5 C24.7881357 43.29689047 21.23347461 48.60358687 14.39453125 52.9609375 C6.95618017 56.38282168 -1.29516056 56.83613931 -9.1875 54.734375 C-17.93726558 51.45321291 -22.44328788 46.95274031 -26.3125 38.5 C-28.99994011 30.42077752 -28.26956457 20.34128184 -24.70703125 12.6875 C-19.07452486 3.85219586 -10.23603168 -0.09142414 0 0 Z M-6.3125 17.5 C-6.9725 19.15 -7.6325 20.8 -8.3125 22.5 C-3.0325 22.5 2.2475 22.5 7.6875 22.5 C6.21110997 17.43991361 6.21110997 17.43991361 2.6875 15.5 C-0.86646705 15.13549056 -3.38742952 15.38184551 -6.3125 17.5 Z " fill="#FFFFFF" transform="translate(1607.3125,864.5)"/>
<path d="M0 0 C0.74548096 0.00572021 1.49096191 0.01144043 2.2590332 0.01733398 C10.38014264 0.27919149 16.40973036 2.83351022 22.125 8.6875 C27.52127676 15.73476229 27.6875 22.80433168 27.6875 31.5 C15.8075 31.5 3.9275 31.5 -8.3125 31.5 C-6.66172098 35.25170424 -6.66172098 35.25170424 -4.3125 38.5 C-0.89625742 38.83354403 -0.89625742 38.83354403 2.6875 38.5 C3.15647705 38.00588623 3.6254541 37.51177246 4.10864258 37.00268555 C6.27960373 34.93646227 7.619699 35.15331271 10.57421875 35.20703125 C11.9809082 35.2215332 11.9809082 35.2215332 13.41601562 35.23632812 C14.39248047 35.26146484 15.36894531 35.28660156 16.375 35.3125 C17.36306641 35.32603516 18.35113281 35.33957031 19.36914062 35.35351562 C21.80914231 35.38887797 24.24804719 35.43822967 26.6875 35.5 C24.7881357 43.29689047 21.23347461 48.60358687 14.39453125 52.9609375 C6.95618017 56.38282168 -1.29516056 56.83613931 -9.1875 54.734375 C-17.93726558 51.45321291 -22.44328788 46.95274031 -26.3125 38.5 C-28.99994011 30.42077752 -28.26956457 20.34128184 -24.70703125 12.6875 C-19.07452486 3.85219586 -10.23603168 -0.09142414 0 0 Z M-6.3125 17.5 C-6.9725 19.15 -7.6325 20.8 -8.3125 22.5 C-3.0325 22.5 2.2475 22.5 7.6875 22.5 C6.21110997 17.43991361 6.21110997 17.43991361 2.6875 15.5 C-0.86646705 15.13549056 -3.38742952 15.38184551 -6.3125 17.5 Z " fill="#FFFFFF" transform="translate(744.3125,864.5)"/>
<path d="M0 0 C6.6 0 13.2 0 20 0 C23.38085328 9.01560874 23.38085328 9.01560874 24.60546875 13.48828125 C24.99702148 14.91817383 24.99702148 14.91817383 25.39648438 16.37695312 C25.78803711 17.83004883 25.78803711 17.83004883 26.1875 19.3125 C26.46013672 20.30056641 26.73277344 21.28863281 27.01367188 22.30664062 C27.27083984 23.25345703 27.52800781 24.20027344 27.79296875 25.17578125 C28.0252417 26.03083252 28.25751465 26.88588379 28.49682617 27.7668457 C29 30 29 30 29 33 C29.66 33 30.32 33 31 33 C31.09152344 32.12214844 31.18304688 31.24429688 31.27734375 30.33984375 C32.14122508 24.29267443 33.94295661 18.44096146 35.5625 12.5625 C35.89185547 11.35400391 36.22121094 10.14550781 36.56054688 8.90039062 C37.36995257 5.93256975 38.18447014 2.96614385 39 0 C45.93 0 52.86 0 60 0 C57.74965197 10.12656614 57.74965197 10.12656614 56.41186523 14.04492188 C56.11493271 14.92192749 55.81800018 15.79893311 55.5120697 16.70251465 C55.19742264 17.61537231 54.88277557 18.52822998 54.55859375 19.46875 C54.06698509 20.91102966 54.06698509 20.91102966 53.56544495 22.38244629 C52.87770913 24.39669876 52.18764872 26.41015891 51.49536133 28.42285156 C50.43169905 31.51687403 49.37645934 34.6136777 48.32226562 37.7109375 C47.65153316 39.67204317 46.98032638 41.63298669 46.30859375 43.59375 C45.99192245 44.52280151 45.67525116 45.45185303 45.34898376 46.40905762 C44.90831322 47.68674011 44.90831322 47.68674011 44.45874023 48.99023438 C44.20051987 49.74252319 43.9422995 50.49481201 43.67625427 51.26989746 C43 53 43 53 42 54 C40.21928754 54.08726223 38.4351686 54.10699041 36.65234375 54.09765625 C35.57275391 54.09443359 34.49316406 54.09121094 33.38085938 54.08789062 C32.24455078 54.07951172 31.10824219 54.07113281 29.9375 54.0625 C28.79732422 54.05798828 27.65714844 54.05347656 26.48242188 54.04882812 C23.65489649 54.03699747 20.8274736 54.0205141 18 54 C13.83086 44.53453896 10.40477771 34.86221962 7.06860352 25.07910156 C6.1788208 22.47459488 5.27818028 19.87400318 4.37695312 17.2734375 C3.80663582 15.60959966 3.23695077 13.94554494 2.66796875 12.28125 C2.26495796 11.12187927 2.26495796 11.12187927 1.85380554 9.93908691 C0.66122543 6.41332196 0 3.76183735 0 0 Z " fill="#FFFFFF" transform="translate(223,865)"/>
<path d="M0 0 C7.59692209 4.86544448 10.86305049 11.11218474 13.375 19.5 C9.95862047 19.61632513 6.54275103 19.68728897 3.125 19.75 C2.15691406 19.78351562 1.18882813 19.81703125 0.19140625 19.8515625 C-7.06998024 19.95171955 -7.06998024 19.95171955 -10.1015625 17.484375 C-10.60429688 16.82953125 -11.10703125 16.1746875 -11.625 15.5 C-14.7653994 15.32889551 -14.7653994 15.32889551 -17.625 16.5 C-19.72139314 19.60576761 -19.92228507 22.30784283 -19.9375 26 C-19.95425781 26.9384375 -19.97101563 27.876875 -19.98828125 28.84375 C-19.56544583 31.93544984 -18.80622037 33.29323841 -16.625 35.5 C-13.625 36.16666667 -13.625 36.16666667 -10.625 35.5 C-9.94087036 34.50661621 -9.94087036 34.50661621 -9.24291992 33.49316406 C-7.625 31.5 -7.625 31.5 -5.35668945 31.04589844 C-4.49261475 31.0668457 -3.62854004 31.08779297 -2.73828125 31.109375 C-1.80048828 31.12226562 -0.86269531 31.13515625 0.10351562 31.1484375 C1.07998047 31.18195312 2.05644531 31.21546875 3.0625 31.25 C4.05056641 31.26804687 5.03863281 31.28609375 6.05664062 31.3046875 C8.49706842 31.35184553 10.93554769 31.41763958 13.375 31.5 C11.49434329 39.91022649 8.68687942 45.60907829 1.25 50.4375 C-5.25912647 54.29330785 -12.23067159 54.12044365 -19.625 53.5 C-26.10238949 51.81518036 -32.25682859 49.15008755 -35.99609375 43.38671875 C-40.96495486 34.78622544 -42.46052127 25.674266 -39.94140625 15.828125 C-37.20968351 9.2538545 -33.12166569 3.54593897 -26.8125 0.0625 C-19.15180316 -2.94705947 -7.55055859 -3.3098339 0 0 Z " fill="#FFFFFF" transform="translate(1915.625,866.5)"/>
<path d="M0 0 C7.59692209 4.86544448 10.86305049 11.11218474 13.375 19.5 C9.95862047 19.61632513 6.54275103 19.68728897 3.125 19.75 C2.15691406 19.78351562 1.18882812 19.81703125 0.19140625 19.8515625 C-7.06998024 19.95171955 -7.06998024 19.95171955 -10.1015625 17.484375 C-10.60429688 16.82953125 -11.10703125 16.1746875 -11.625 15.5 C-14.7653994 15.32889551 -14.7653994 15.32889551 -17.625 16.5 C-19.72139314 19.60576761 -19.92228507 22.30784283 -19.9375 26 C-19.95425781 26.9384375 -19.97101562 27.876875 -19.98828125 28.84375 C-19.56544583 31.93544984 -18.80622037 33.29323841 -16.625 35.5 C-13.625 36.16666667 -13.625 36.16666667 -10.625 35.5 C-9.94087036 34.50661621 -9.94087036 34.50661621 -9.24291992 33.49316406 C-7.625 31.5 -7.625 31.5 -5.35668945 31.04589844 C-4.49261475 31.0668457 -3.62854004 31.08779297 -2.73828125 31.109375 C-1.80048828 31.12226562 -0.86269531 31.13515625 0.10351562 31.1484375 C1.07998047 31.18195312 2.05644531 31.21546875 3.0625 31.25 C4.05056641 31.26804687 5.03863281 31.28609375 6.05664062 31.3046875 C8.49706842 31.35184553 10.93554769 31.41763958 13.375 31.5 C11.49434329 39.91022649 8.68687942 45.60907829 1.25 50.4375 C-5.25912647 54.29330785 -12.23067159 54.12044365 -19.625 53.5 C-26.10238949 51.81518036 -32.25682859 49.15008755 -35.99609375 43.38671875 C-40.96495486 34.78622544 -42.46052127 25.674266 -39.94140625 15.828125 C-37.20968351 9.2538545 -33.12166569 3.54593897 -26.8125 0.0625 C-19.15180316 -2.94705947 -7.55055859 -3.3098339 0 0 Z " fill="#FFFFFF" transform="translate(816.625,866.5)"/>
<path d="M0 0 C4.48294323 2.69587557 7.35416229 6.12372906 9.25 11 C9.63015521 12.99163077 9.97285904 14.99144231 10.25 17 C7.31152347 17.107834 4.37698849 17.18721916 1.4375 17.25 C0.18743164 17.30027344 0.18743164 17.30027344 -1.08789062 17.3515625 C-3.37518955 17.38830626 -5.49438045 17.38649741 -7.75 17 C-9.59375 15 -9.59375 15 -10.75 13 C-14.37563814 12.66619186 -14.37563814 12.66619186 -17.75 13 C-17.75 13.99 -17.75 14.98 -17.75 16 C-17.17032471 16.16081055 -16.59064941 16.32162109 -15.9934082 16.48730469 C-13.34614387 17.22922664 -10.70445802 17.98940863 -8.0625 18.75 C-7.15048828 19.00265625 -6.23847656 19.2553125 -5.29882812 19.515625 C1.16117982 21.39490004 5.57981111 23.16067889 9.125 29.1875 C10.89581936 35.18861004 10.37340737 39.70997728 7.625 45.3125 C3.13132805 50.39744457 -2.12497525 52.72150314 -8.8515625 53.23828125 C-18.17691369 53.43471326 -24.68297744 52.0842746 -32.625 47.25 C-36.15029948 43.51732996 -38.75 39.2034929 -38.75 34 C-35.66698584 33.88355844 -32.58453877 33.81267568 -29.5 33.75 C-28.62730469 33.71648438 -27.75460937 33.68296875 -26.85546875 33.6484375 C-20.29350587 33.54825486 -20.29350587 33.54825486 -17.34375 36 C-16.8178125 36.66 -16.291875 37.32 -15.75 38 C-12.582168 38.33448259 -12.582168 38.33448259 -9.75 38 C-9.75 36.68 -9.75 35.36 -9.75 34 C-11.59464844 33.52820313 -11.59464844 33.52820313 -13.4765625 33.046875 C-15.10953043 32.61517083 -16.74233442 32.18284622 -18.375 31.75 C-19.18324219 31.54503906 -19.99148438 31.34007812 -20.82421875 31.12890625 C-26.97959651 29.47746344 -31.90098879 27.7118831 -35.625 22.25 C-37.42567279 17.04805639 -37.45871789 13.00803403 -35.625 7.8125 C-28.05627316 -3.54059027 -11.98254117 -5.36774469 0 0 Z " fill="#FFFFFF" transform="translate(1528.75,867)"/>
<path d="M0 0 C18.15 0 36.3 0 55 0 C55 5.28 55 10.56 55 16 C49.06 16 43.12 16 37 16 C37 33.16 37 50.32 37 68 C30.73 68 24.46 68 18 68 C18 50.84 18 33.68 18 16 C12.06 16 6.12 16 0 16 C0 10.72 0 5.44 0 0 Z " fill="#FFFFFF" transform="translate(1259,851)"/>
<path d="M0 0 C18.15 0 36.3 0 55 0 C55 5.28 55 10.56 55 16 C49.06 16 43.12 16 37 16 C37 33.16 37 50.32 37 68 C30.73 68 24.46 68 18 68 C18 50.84 18 33.68 18 16 C12.06 16 6.12 16 0 16 C0 10.72 0 5.44 0 0 Z " fill="#FFFFFF" transform="translate(658,851)"/>
<path d="M0 0 C0 5.28 0 10.56 0 16 C-1.98 16.66 -3.96 17.32 -6 18 C-6.33 18.66 -6.66 19.32 -7 20 C-4.36 20.33 -1.72 20.66 1 21 C1 26.28 1 31.56 1 37 C-1.97 37 -4.94 37 -8 37 C-8 49.54 -8 62.08 -8 75 C-14.27 75 -20.54 75 -27 75 C-27 62.46 -27 49.92 -27 37 C-28.98 37 -30.96 37 -33 37 C-33 31.72 -33 26.44 -33 21 C-31.02 21 -29.04 21 -27 21 C-27.12375 19.515 -27.12375 19.515 -27.25 18 C-27.21758818 12.66285347 -25.1797226 8.34557106 -21.5625 4.453125 C-15.35754588 -0.61823173 -7.64072737 -1.52814547 0 0 Z " fill="#FFFFFF" transform="translate(1842,844)"/>
<path d="M0 0 C0 5.28 0 10.56 0 16 C-1.98 16.66 -3.96 17.32 -6 18 C-6.33 18.66 -6.66 19.32 -7 20 C-4.36 20.33 -1.72 20.66 1 21 C1 26.28 1 31.56 1 37 C-1.97 37 -4.94 37 -8 37 C-8 49.54 -8 62.08 -8 75 C-14.27 75 -20.54 75 -27 75 C-27 62.46 -27 49.92 -27 37 C-28.98 37 -30.96 37 -33 37 C-33 31.72 -33 26.44 -33 21 C-31.02 21 -29.04 21 -27 21 C-27.12375 19.515 -27.12375 19.515 -27.25 18 C-27.21758818 12.66285347 -25.1797226 8.34557106 -21.5625 4.453125 C-15.35754588 -0.61823173 -7.64072737 -1.52814547 0 0 Z " fill="#FFFFFF" transform="translate(1806,844)"/>
<path d="M0 0 C0 5.28 0 10.56 0 16 C-1.98 16.66 -3.96 17.32 -6 18 C-6.33 18.66 -6.66 19.32 -7 20 C-4.36 20.33 -1.72 20.66 1 21 C1 26.28 1 31.56 1 37 C-1.97 37 -4.94 37 -8 37 C-8 49.54 -8 62.08 -8 75 C-14.27 75 -20.54 75 -27 75 C-27 62.46 -27 49.92 -27 37 C-28.98 37 -30.96 37 -33 37 C-33 31.72 -33 26.44 -33 21 C-31.02 21 -29.04 21 -27 21 C-27.12375 19.515 -27.12375 19.515 -27.25 18 C-27.21758818 12.66285347 -25.1797226 8.34557106 -21.5625 4.453125 C-15.35754588 -0.61823173 -7.64072737 -1.52814547 0 0 Z " fill="#FFFFFF" transform="translate(1576,844)"/>
<path d="M0 0 C6.27 0 12.54 0 19 0 C19 4.29 19 8.58 19 13 C22.3 13 25.6 13 29 13 C29 18.28 29 23.56 29 29 C25.7 29 22.4 29 19 29 C19.33 35.93 19.66 42.86 20 50 C22.97 50.33 25.94 50.66 29 51 C29 56.28 29 61.56 29 67 C10.3721823 67.62092726 10.3721823 67.62092726 5 63 C0.78486709 57.81214411 -0.13241544 53.89410325 -0.09765625 47.359375 C-0.09443359 46.28945313 -0.09121094 45.21953125 -0.08789062 44.1171875 C-0.07951172 43.00601563 -0.07113281 41.89484375 -0.0625 40.75 C-0.05798828 39.62335937 -0.05347656 38.49671875 -0.04882812 37.3359375 C-0.03705397 34.55723783 -0.0206084 31.77864591 0 29 C-2.31 29 -4.62 29 -7 29 C-7 23.72 -7 18.44 -7 13 C-4.69 13 -2.38 13 0 13 C0 8.71 0 4.42 0 0 Z " fill="#FFFFFF" transform="translate(356,852)"/>
<path d="M0 0 C6.27 0 12.54 0 19 0 C19.33 2.31 19.66 4.62 20 7 C20.47308594 6.57847656 20.94617187 6.15695312 21.43359375 5.72265625 C22.09488281 5.17480469 22.75617188 4.62695312 23.4375 4.0625 C24.07558594 3.51722656 24.71367188 2.97195313 25.37109375 2.41015625 C28 1 28 1 37 0 C37 6.6 37 13.2 37 20 C32.06835938 20.63476562 32.06835938 20.63476562 27.13671875 21.26953125 C23.95631694 22.01017277 22.81147174 22.34770861 21 25 C19.95859272 28.28135453 19.80604443 31.43075608 19.68359375 34.859375 C19.64169922 35.97441406 19.59980469 37.08945312 19.55664062 38.23828125 C19.51732422 39.39714844 19.47800781 40.55601562 19.4375 41.75 C19.39431641 42.92433594 19.35113281 44.09867188 19.30664062 45.30859375 C19.20065283 48.20559355 19.09983084 51.1027815 19 54 C12.73 54 6.46 54 0 54 C0 36.18 0 18.36 0 0 Z " fill="#FFFFFF" transform="translate(1641,865)"/>
<path d="M0 0 C6.27 0 12.54 0 19 0 C19.33 2.31 19.66 4.62 20 7 C20.47308594 6.57847656 20.94617187 6.15695312 21.43359375 5.72265625 C22.09488281 5.17480469 22.75617188 4.62695312 23.4375 4.0625 C24.07558594 3.51722656 24.71367188 2.97195313 25.37109375 2.41015625 C28 1 28 1 37 0 C37 6.6 37 13.2 37 20 C32.06835938 20.63476562 32.06835938 20.63476562 27.13671875 21.26953125 C23.95631694 22.01017277 22.81147174 22.34770861 21 25 C19.95859272 28.28135453 19.80604443 31.43075608 19.68359375 34.859375 C19.64169922 35.97441406 19.59980469 37.08945312 19.55664062 38.23828125 C19.51732422 39.39714844 19.47800781 40.55601562 19.4375 41.75 C19.39431641 42.92433594 19.35113281 44.09867188 19.30664062 45.30859375 C19.20065283 48.20559355 19.09983084 51.1027815 19 54 C12.73 54 6.46 54 0 54 C0 36.18 0 18.36 0 0 Z " fill="#FFFFFF" transform="translate(1320,865)"/>
<path d="M0 0 C6.27 0 12.54 0 19 0 C19 23.43 19 46.86 19 71 C12.73 71 6.46 71 0 71 C0 47.57 0 24.14 0 0 Z " fill="#FFFFFF" transform="translate(1028,848)"/>
<path d="M0 0 C6.27 0 12.54 0 19 0 C19 22.44 19 44.88 19 68 C12.73 68 6.46 68 0 68 C0 45.56 0 23.12 0 0 Z " fill="#FFFFFF" transform="translate(6,851)"/>
<path d="M0 0 C6.27 0 12.54 0 19 0 C19 17.82 19 35.64 19 54 C12.73 54 6.46 54 0 54 C0 36.18 0 18.36 0 0 Z " fill="#FFFFFF" transform="translate(1848,865)"/>
<path d="M0 0 C6.27 0 12.54 0 19 0 C19 17.82 19 35.64 19 54 C12.73 54 6.46 54 0 54 C0 36.18 0 18.36 0 0 Z " fill="#FFFFFF" transform="translate(393,865)"/>
<path d="M0 0 C3.46620808 2.8545243 3.99675401 4.74235297 4.5625 9.1875 C4.01213565 13.66903826 2.57329737 14.95852117 -0.875 17.75 C-4.07098065 19.34799033 -7.39822756 19.11773555 -10.875 18.75 C-15.01367907 17.00255773 -17.16878166 14.92075595 -18.875 10.75 C-18.80457811 6.7359525 -18.50400051 4.54673397 -16 1.375 C-11.25827984 -2.2510213 -5.31193217 -2.30953573 0 0 Z " fill="#FFFFFF" transform="translate(1864.875,842.25)"/>
<path d="M0 0 C3.46620808 2.8545243 3.99675401 4.74235297 4.5625 9.1875 C4.01213565 13.66903826 2.57329737 14.95852117 -0.875 17.75 C-4.07098065 19.34799033 -7.39822756 19.11773555 -10.875 18.75 C-15.01367907 17.00255773 -17.16878166 14.92075595 -18.875 10.75 C-18.80457811 6.7359525 -18.50400051 4.54673397 -16 1.375 C-11.25827984 -2.2510213 -5.31193217 -2.30953573 0 0 Z " fill="#FFFFFF" transform="translate(409.875,842.25)"/>
</svg>
